<?xml version="1.0" encoding="UTF-8"?>
<svg version="1.1" xmlns="http://www.w3.org/2000/svg" width="512" height="512">
<path d="M0 0 C0.92320038 0.00215515 1.84640076 0.0043103 2.7975769 0.00653076 C16.84510478 0.05906873 30.56720523 0.50878372 44.375 3.3125 C45.83800537 3.60253906 45.83800537 3.60253906 47.33056641 3.8984375 C89.5561911 12.53140952 129.50688243 31.53522623 161.04296875 61.1328125 C163.06200592 63.01995277 165.12693267 64.79547502 167.25 66.5625 C206.07414713 100.56328058 230.8051121 152.88273105 238.375 203.3125 C238.55232666 204.455979 238.72965332 205.59945801 238.91235352 206.77758789 C240.47472073 217.82401777 240.73426149 228.72938743 240.6875 239.875 C240.68534485 240.80069794 240.6831897 241.72639587 240.68096924 242.68014526 C240.62848753 256.74296666 240.19500854 270.49116432 237.375 284.3125 C237.07698486 285.79145752 237.07698486 285.79145752 236.77294922 287.30029297 C227.9890007 329.52246351 209.26601851 369.34698424 179.58984375 400.9453125 C177.68987069 402.97597153 175.90253551 405.05091118 174.125 407.1875 C142.37009367 443.44717211 94.8494181 467.0090216 48.1875 476.5625 C47.45329834 476.71364258 46.71909668 476.86478516 45.96264648 477.02050781 C30.90036133 479.90938857 15.98907522 480.68784686 0.6875 480.625 C-0.69822205 480.62226578 -0.69822205 480.62226578 -2.11193848 480.61947632 C-15.82977635 480.57394399 -29.14839132 480.06690328 -42.625 477.3125 C-43.47690918 477.15152832 -44.32881836 476.99055664 -45.20654297 476.82470703 C-88.99093781 468.4722139 -129.01395816 448.64974443 -161.625 418.3125 C-162.9959163 417.12028787 -164.37076624 415.93258001 -165.75 414.75 C-173.54691563 407.92183942 -180.21925423 400.4483848 -186.625 392.3125 C-187.12725098 391.68134277 -187.62950195 391.05018555 -188.14697266 390.39990234 C-195.78330791 380.77807396 -202.6872176 371.06801154 -208.625 360.3125 C-209.06054199 359.53422852 -209.49608398 358.75595703 -209.94482422 357.95410156 C-240.5055373 302.99402322 -248.85797822 237.03350672 -232.08203125 176.24609375 C-218.21567823 128.49702365 -191.18372946 84.09148623 -151.625 53.3125 C-150.99964355 52.8160498 -150.37428711 52.31959961 -149.72998047 51.80810547 C-140.09964627 44.16312292 -130.3836999 37.2669056 -119.625 31.3125 C-118.86268066 30.88227539 -118.10036133 30.45205078 -117.31494141 30.00878906 C-95.52969478 17.78197668 -72.08462351 9.1700919 -47.625 4.125 C-46.87895508 3.96990967 -46.13291016 3.81481934 -45.36425781 3.6550293 C-30.2747702 0.71811693 -15.33595828 -0.06464961 0 0 Z " fill="#0CB0FE" transform="translate(255.625,15.6875)"/>
<path d="M0 0 C0.66 0 1.32 0 2 0 C3.41574383 1.4346323 3.41574383 1.4346323 5.07243347 3.43934631 C9.1095822 8.18272416 13.4327722 12.5733974 17.84106445 16.97045898 C19.12525017 18.25727318 19.12525017 18.25727318 20.43537903 19.57008362 C22.7596025 21.89792729 25.08602638 24.2235416 27.41365457 26.54798007 C29.85655546 28.98833126 32.29699539 31.43114161 34.73783875 33.87355042 C38.82872117 37.96624488 42.92169178 42.05684209 47.01586914 46.14624023 C51.7501969 50.87510536 56.4808821 55.60759155 61.20973426 60.34193176 C65.27852276 64.41525294 69.34924991 68.48662899 73.4216153 72.55637413 C75.85053281 74.98373252 78.27876916 77.41176193 80.70525551 79.84155083 C83.40261927 82.54233051 86.10404351 85.23902542 88.8059082 87.93530273 C89.61058533 88.74200409 90.41526245 89.54870544 91.24432373 90.37985229 C91.9774025 91.11011124 92.71048126 91.84037018 93.46577454 92.59275818 C94.10378148 93.2303881 94.74178843 93.86801802 95.39912891 94.52497005 C96.94957544 96.0902808 96.94957544 96.0902808 99 97 C98.52482236 105.16097307 97.39422878 112.87850655 95.4375 120.8125 C95.03942139 122.43091797 95.03942139 122.43091797 94.63330078 124.08203125 C85.06961105 161.78620355 66.93560592 197.18132166 40.21484375 225.6328125 C38.31487069 227.66347153 36.52753551 229.73841118 34.75 231.875 C-1.23449887 272.96427662 -59.26444763 300.34051001 -113.45904541 304.55810547 C-116.48000807 304.79932493 -119.29611113 305.275972 -122.24432373 305.96533203 C-129.19433991 307.20777329 -135.0084471 306.91296116 -141.07765198 303.03198242 C-149.27088799 296.7466582 -156.33838119 289.02216836 -163.45165348 281.57622528 C-166.61288016 278.28906353 -169.83173436 275.0593 -173.0446167 271.82275391 C-179.10574997 265.69971794 -185.11414256 259.52757587 -191.10476184 253.33561897 C-197.93316469 246.28283884 -204.81917785 239.28748554 -211.71035624 232.29611588 C-225.87143056 217.92658318 -239.95947492 203.48728113 -254 189 C-250.0645188 187.68817293 -246.3279976 187.8795563 -242.22712708 187.90666199 C-241.31957615 187.90862983 -240.41202523 187.91059766 -239.47697276 187.91262513 C-236.42317284 187.92036991 -233.36944751 187.93523421 -230.31567383 187.94995117 C-228.13119653 187.95677877 -225.94671763 187.96310948 -223.76223755 187.96897888 C-219.05102666 187.98232788 -214.33983627 187.99847204 -209.62864113 188.01653099 C-202.17852068 188.04432394 -194.72840053 188.06136024 -187.27824402 188.07600403 C-184.72876069 188.08114822 -182.1792774 188.08630484 -179.62979412 188.09147358 C-178.35287272 188.09405914 -177.07595132 188.0966447 -175.76033533 188.09930861 C-169.15263916 188.1130445 -162.5449466 188.12816155 -155.93725586 188.14428711 C-155.27414375 188.14590185 -154.61103165 188.1475166 -153.92782523 188.14918027 C-143.18925019 188.17569825 -132.45073794 188.21345249 -121.71220986 188.25447568 C-110.68316711 188.29624945 -99.65415945 188.32238344 -88.62504596 188.33568364 C-82.43421149 188.34375928 -76.24359098 188.35928336 -70.05283546 188.39235497 C-64.22766555 188.4234164 -58.40275283 188.43588039 -52.5775032 188.43413734 C-50.44097693 188.43683257 -48.30444647 188.44639034 -46.16798592 188.46336365 C-43.2475992 188.48555631 -40.32822622 188.48294203 -37.40779114 188.47428894 C-36.56545876 188.48662243 -35.72312638 188.49895591 -34.85526878 188.51166314 C-28.55244384 188.45310781 -23.19376019 186.94897449 -18.47083122 182.58803433 C-13.5237545 176.98039551 -12.70488721 171.98605437 -12.77294922 164.72143555 C-12.77265717 163.90140549 -12.77236511 163.08137543 -12.77206421 162.23649597 C-12.77345325 159.53646115 -12.78899433 156.83670514 -12.8046875 154.13671875 C-12.80841915 152.2605657 -12.8112654 150.3844107 -12.81326294 148.508255 C-12.82088746 143.57793772 -12.84052583 138.64773886 -12.8626709 133.71746826 C-12.88315476 128.68340659 -12.89227009 123.64932573 -12.90234375 118.61523438 C-12.92377281 108.74343764 -12.95789453 98.87172868 -13 89 C-14.64548828 89.72860229 -14.64548828 89.72860229 -16.32421875 90.47192383 C-17.77859624 91.11290552 -19.23302609 91.7537684 -20.6875 92.39453125 C-21.40873047 92.71425903 -22.12996094 93.03398682 -22.87304688 93.36340332 C-28.16365028 95.69012131 -33.39149256 97.58156934 -39 99 C-40.8871875 99.49113281 -40.8871875 99.49113281 -42.8125 99.9921875 C-54.38998804 102.9636526 -65.80735133 105.23151757 -77.6875 106.625 C-78.77611328 106.7590625 -79.86472656 106.893125 -80.98632812 107.03125 C-86.36199678 107.6717552 -91.586202 108.17039135 -97 108 C-96.95359375 108.9178125 -96.9071875 109.835625 -96.859375 110.78125 C-96.46193399 124.29424448 -96.46193399 124.29424448 -101 130 C-105.13476912 134.36992186 -109.36685442 137.6146847 -115.52156067 138.26742554 C-116.41010239 138.27504913 -117.2986441 138.28267273 -118.21411133 138.29052734 C-119.22899124 138.30328705 -120.24387115 138.31604675 -121.289505 138.32919312 C-122.37603867 138.33141876 -123.46257233 138.33364441 -124.58203125 138.3359375 C-125.71017746 138.3425943 -126.83832367 138.3492511 -128.00065613 138.35610962 C-130.38526787 138.36622451 -132.76990785 138.370927 -135.15454102 138.37060547 C-138.78905305 138.37497183 -142.42234385 138.41128709 -146.05664062 138.44921875 C-148.37760003 138.45508859 -150.69856518 138.45905686 -153.01953125 138.4609375 C-154.6402227 138.48249405 -154.6402227 138.48249405 -156.2936554 138.50448608 C-163.81908207 138.45928033 -169.16516023 137.30921502 -175.0234375 132.25390625 C-175.46945313 131.69574219 -175.91546875 131.13757813 -176.375 130.5625 C-176.83648437 130.00691406 -177.29796875 129.45132813 -177.7734375 128.87890625 C-180.85463073 124.15898923 -181.2296185 120.28458968 -181.125 114.6875 C-181.10695313 113.43324219 -181.08890625 112.17898438 -181.0703125 110.88671875 C-181.04710937 109.93410156 -181.02390625 108.98148437 -181 108 C-181.7321875 107.96261719 -182.464375 107.92523438 -183.21875 107.88671875 C-194.21333878 107.21919015 -205.1288979 106.02687516 -216.02392578 104.4140625 C-218.74217943 104.03587069 -221.45243609 103.76288651 -224.18359375 103.5 C-241.1365417 101.22672561 -251.24010774 88.1876134 -262 76 C-261.01 75.505 -261.01 75.505 -260 75 C-257.75965693 75.97882017 -255.61286978 77.01698067 -253.4375 78.125 C-230.88020795 89.0484238 -205.7071611 91.47479005 -181 93 C-181.0314209 92.01773438 -181.0314209 92.01773438 -181.06347656 91.015625 C-181.14730383 88.01057672 -181.19886895 85.00577536 -181.25 82 C-181.28351563 80.97003906 -181.31703125 79.94007813 -181.3515625 78.87890625 C-181.44920102 71.21428261 -180.31718676 65.84407772 -175.25390625 59.9765625 C-174.69574219 59.53054687 -174.13757813 59.08453125 -173.5625 58.625 C-173.00691406 58.16351563 -172.45132813 57.70203125 -171.87890625 57.2265625 C-168.00587648 54.6982229 -164.49088884 53.74986193 -159.89355469 53.70947266 C-158.90192322 53.69671295 -157.91029175 53.68395325 -156.88861084 53.67080688 C-155.82708801 53.66858124 -154.76556519 53.66635559 -153.671875 53.6640625 C-152.56829651 53.6574057 -151.46471802 53.6507489 -150.32769775 53.64389038 C-147.994361 53.63377553 -145.66099538 53.629073 -143.32763672 53.62939453 C-139.77652652 53.62503258 -136.22667079 53.58872969 -132.67578125 53.55078125 C-130.40365006 53.54491047 -128.131513 53.54094283 -125.859375 53.5390625 C-124.8059491 53.52469147 -123.75252319 53.51032043 -122.66717529 53.49551392 C-115.30026355 53.54065304 -108.68914732 54.56822531 -103.11859131 59.75015259 C-98.64539527 64.60066214 -96.73349055 69.08136615 -96.8046875 75.73828125 C-96.81435547 77.33833008 -96.81435547 77.33833008 -96.82421875 78.97070312 C-96.84935547 80.62489258 -96.84935547 80.62489258 -96.875 82.3125 C-96.88402344 83.43462891 -96.89304687 84.55675781 -96.90234375 85.71289062 C-96.92585514 88.47547909 -96.95871845 91.23762932 -97 94 C-48.04321956 89.94099452 -48.04321956 89.94099452 -7 66 C-5.0935399 63.09969604 -3.48691323 60.13336652 -2 57 C-1.67 56.34 -1.34 55.68 -1 55 C-0.88068952 53.24409123 -0.82280132 51.48385393 -0.79467773 49.72412109 C-0.77473251 48.6231308 -0.75478729 47.5221405 -0.73423767 46.38778687 C-0.71752518 45.19505157 -0.70081268 44.00231628 -0.68359375 42.7734375 C-0.6524221 40.94650864 -0.6524221 40.94650864 -0.62062073 39.08267212 C-0.55507416 35.1801738 -0.49621645 31.2776065 -0.4375 27.375 C-0.39431965 24.73436778 -0.35070552 22.09374261 -0.30664062 19.453125 C-0.19938756 12.96882357 -0.09763071 6.48445306 0 0 Z " fill="#0092D8" transform="translate(395,191)"/>
<path d="M0 0 C1.07642742 -0.00724325 2.15285483 -0.01448649 3.26190126 -0.02194923 C6.86358453 -0.03883738 10.46366592 -0.01289258 14.0652771 0.01295471 C16.64930148 0.00973548 19.23332373 0.00391828 21.81733704 -0.00430298 C28.10347743 -0.0194038 34.38914317 -0.00253739 40.67522456 0.02524792 C47.99661495 0.05644328 55.31790348 0.05618824 62.63934784 0.05473018 C75.70183448 0.05322931 88.76410052 0.08068757 101.82650757 0.12428284 C114.50070209 0.16656053 127.17470251 0.18779433 139.84896851 0.18580627 C141.02033914 0.18562647 141.02033914 0.18562647 142.21537383 0.18544304 C142.99494061 0.18532197 143.77450738 0.18520091 144.5776974 0.18507618 C159.01056977 0.18300657 173.44335973 0.20067496 187.87620539 0.22753583 C192.97952153 0.23658312 198.08282252 0.23977428 203.18614578 0.24113274 C210.05295655 0.24339303 216.91955893 0.26242669 223.78630257 0.29263115 C226.30946031 0.30140642 228.83264158 0.30508219 231.35581398 0.30334854 C234.79366162 0.30188007 238.23093361 0.31880667 241.66870117 0.34057617 C243.17467171 0.33360746 243.17467171 0.33360746 244.71106589 0.32649797 C249.70969679 0.37895507 253.14208286 0.49562035 257.20736694 3.74171448 C257.79715836 4.18815811 258.38694977 4.63460175 258.99461365 5.09457397 C260.72756098 7.448233 260.59514626 9.19233335 260.61141968 12.09596252 C260.63044594 13.7386335 260.63044594 13.7386335 260.64985657 15.41448975 C260.64545311 17.19101677 260.64545311 17.19101677 260.64096069 19.00343323 C260.64620255 20.22319351 260.6514444 21.4429538 260.65684509 22.69967651 C260.66327544 25.28456358 260.66191529 27.86947988 260.65341187 30.45436096 C260.64493752 34.39638536 260.67359463 38.33694402 260.70541382 42.27882385 C260.70702685 44.79119321 260.70644636 47.30356513 260.70346069 49.81593323 C260.71469467 50.99016342 260.72592865 52.16439362 260.73750305 53.37420654 C260.65468981 63.18079633 257.99045733 69.54623342 251.30892944 76.79640198 C229.7013777 96.7974443 191.35654369 100.90269282 163.20736694 101.74171448 C163.19802124 101.05657776 163.18867554 100.37144104 163.17904663 99.6655426 C163.12494785 96.52357012 163.0413787 93.3830238 162.95736694 90.24171448 C162.94318726 89.16405823 162.92900757 88.08640198 162.91439819 86.97608948 C162.6932791 79.72338311 161.84007695 73.74839889 156.83187866 68.22462463 C150.25919243 62.27260887 143.11781324 62.42336241 134.74642944 62.40577698 C133.64189423 62.39912018 132.53735901 62.39246338 131.39935303 62.38560486 C129.06779643 62.37550067 126.73621104 62.37078715 124.40463257 62.37110901 C120.85141007 62.3667379 117.29943228 62.33039836 113.74642944 62.29249573 C111.47560033 62.28662661 109.20476536 62.28265785 106.93392944 62.28077698 C105.87847931 62.26640594 104.82302917 62.25203491 103.7355957 62.23722839 C96.71663111 62.28037097 90.9749028 63.24208354 85.68725586 68.1537323 C81.5723027 72.78679678 79.99804036 77.15329075 79.79330444 83.26124573 C79.75463257 84.28282776 79.71596069 85.30440979 79.67611694 86.35694885 C79.64517944 87.41204651 79.61424194 88.46714417 79.58236694 89.55421448 C79.54369507 90.62864807 79.50502319 91.70308167 79.46517944 92.81007385 C79.37118081 95.45378536 79.28552121 98.09749497 79.20736694 100.74171448 C50.81906173 101.8258506 12.72836579 96.73363626 -9.00357056 76.74562073 C-13.91905519 71.23984863 -17.87335058 64.87446821 -18.01724243 57.46925354 C-18.03976074 56.36760864 -18.06227905 55.26596375 -18.08547974 54.13093567 C-18.15635565 49.08557351 -18.21400104 44.04036126 -18.25259399 38.99464417 C-18.27485816 36.33204508 -18.32013234 33.67271966 -18.37564087 31.01026917 C-18.45467811 27.17553441 -18.48788866 23.34276882 -18.51138306 19.50733948 C-18.544375 18.31964966 -18.57736694 17.13195984 -18.61135864 15.90827942 C-18.60865967 14.79402588 -18.60596069 13.67977234 -18.60317993 12.53175354 C-18.61570801 11.55627563 -18.62823608 10.58079773 -18.6411438 9.57575989 C-15.9906722 0.72312374 -8.05025842 -0.12428083 0 0 Z " fill="#FDFEFE" transform="translate(134.79263305664063,183.25828552246094)"/>
<path d="M0 0 C1.08797379 0.4833783 2.17594757 0.96675659 3.29689026 1.46478271 C4.74416859 2.10394446 6.19151407 2.74295416 7.63891602 3.38183594 C8.35363319 3.69986176 9.06835037 4.01788757 9.80472565 4.34555054 C15.40532312 6.81215933 21.00156706 8.74351512 26.9375 10.25 C27.87658203 10.49540527 28.81566406 10.74081055 29.78320312 10.99365234 C47.89625156 15.62055597 66.48942196 17.61863915 85 20 C85.07891479 21.43653931 85.07891479 21.43653931 85.15942383 22.90209961 C85.23700928 24.16030518 85.31459473 25.41851074 85.39453125 26.71484375 C85.46776611 27.96128662 85.54100098 29.20772949 85.61645508 30.49194336 C86.28172076 36.5767318 88.38975149 40.80781254 92.9375 44.875 C97.35250451 47.93847252 100.84295838 49.24444341 106.21411133 49.29052734 C107.22899124 49.30328705 108.24387115 49.31604675 109.289505 49.32919312 C110.37603867 49.33141876 111.46257233 49.33364441 112.58203125 49.3359375 C113.71017746 49.3425943 114.83832367 49.3492511 116.00065613 49.35610962 C118.38526787 49.36622451 120.76990785 49.370927 123.15454102 49.37060547 C126.78905305 49.37497183 130.42234385 49.41128709 134.05664062 49.44921875 C136.37760003 49.45508859 138.69856518 49.45905686 141.01953125 49.4609375 C142.6402227 49.48249405 142.6402227 49.48249405 144.2936554 49.50448608 C151.38509336 49.46188733 157.17519844 48.55514416 162.51911926 43.58798218 C167.18189924 38.34195459 168.23985399 33.55593722 168.625 26.6875 C168.69976562 25.43324219 168.77453125 24.17898438 168.8515625 22.88671875 C168.92503906 21.45779297 168.92503906 21.45779297 169 20 C169.91700684 19.88930176 170.83401367 19.77860352 171.77880859 19.66455078 C175.22711343 19.24640303 178.67495693 18.82477053 182.12255859 18.40087891 C183.60611571 18.21917291 185.08983686 18.03880049 186.57373047 17.85986328 C194.78481274 16.86877513 202.9176829 15.79082902 211 14 C211.79954102 13.83612793 212.59908203 13.67225586 213.42285156 13.50341797 C226.03068759 10.90388974 237.55594779 7.15885786 249.24853516 1.76855469 C251 1 251 1 254 0 C254.09283823 10.94438472 254.16383518 21.88867515 254.20724869 32.83337402 C254.22808911 37.91591337 254.25634194 42.99818253 254.30175781 48.08056641 C254.34534205 52.9889083 254.36916376 57.89699094 254.37950897 62.80551147 C254.38687779 64.67455117 254.40126737 66.5435773 254.42292023 68.4125061 C254.45212176 71.03833247 254.45594907 73.66309889 254.45410156 76.2890625 C254.46848267 77.05511307 254.48286377 77.82116364 254.49768066 78.61042786 C254.44918167 85.01562572 252.4557545 90.15418159 248.25390625 95.0234375 C247.69574219 95.46945312 247.13757813 95.91546875 246.5625 96.375 C246.00691406 96.83648437 245.45132813 97.29796875 244.87890625 97.7734375 C239.66805144 101.17511818 235.02069647 101.29134646 228.98661804 101.27415466 C227.62272838 101.28200968 227.62272838 101.28200968 226.23128539 101.29002339 C223.18368681 101.30502834 220.13625604 101.30572865 217.08862305 101.30639648 C214.9038464 101.31401761 212.71907244 101.32244503 210.53430176 101.33161926 C204.59829442 101.3535753 198.66233859 101.36236464 192.72629523 101.36744571 C189.01770208 101.37108787 185.30912244 101.3773272 181.60053444 101.3844471 C169.33032718 101.40768056 157.06015483 101.42165605 144.78992607 101.42498314 C143.79816926 101.42525735 143.79816926 101.42525735 142.78637695 101.42553711 C141.7934053 101.42580793 141.7934053 101.42580793 140.78037361 101.42608423 C130.7217477 101.4294054 120.6632991 101.45202087 110.60473633 101.48706055 C98.91770524 101.52763625 87.23081007 101.55099548 75.54370528 101.55178314 C69.35959878 101.55257643 63.17575141 101.56133907 56.99170494 101.58978081 C51.17462793 101.61593636 45.35802536 101.6181803 39.54091644 101.60212517 C37.40762359 101.60030872 35.2743036 101.60701894 33.14106941 101.62294388 C30.22492922 101.64338373 27.31045225 101.63286447 24.39433289 101.61473083 C23.55336475 101.6279308 22.71239661 101.64113077 21.84594458 101.65473074 C15.08124592 101.55888 10.33112109 99.21969194 5.47077864 94.52193254 C0.49267128 88.89222246 -0.29469402 83.93752464 -0.22705078 76.62963867 C-0.22734283 75.79985504 -0.22763489 74.97007141 -0.22793579 74.11514282 C-0.22654661 71.38264371 -0.21100483 68.65042001 -0.1953125 65.91796875 C-0.19158091 64.01939544 -0.18873462 62.12082019 -0.18673706 60.22224426 C-0.17911214 55.23274388 -0.15947342 50.2433605 -0.1373291 45.25390625 C-0.1168461 40.15952131 -0.10773009 35.0651174 -0.09765625 29.97070312 C-0.07622648 19.98041743 -0.04210428 9.99021846 0 0 Z " fill="#FEFEFE" transform="translate(129,279)"/>
<path d="M0 0 C5.13812825 4.30150522 9.9538552 8.80662025 14.68359375 13.55078125 C15.38396255 14.25019333 16.08433136 14.94960541 16.80592346 15.67021179 C18.27182762 17.13544009 19.73648839 18.60191334 21.19995117 20.06958008 C23.45182244 22.32685682 25.7090454 24.57868445 27.96679688 26.83007812 C29.39355035 28.25749154 30.81999406 29.68521465 32.24609375 31.11328125 C33.26309608 32.12724724 33.26309608 32.12724724 34.30064392 33.16169739 C34.91871414 33.78291977 35.53678436 34.40414215 36.17358398 35.04418945 C36.72094711 35.59234818 37.26831024 36.1405069 37.83226013 36.70527649 C39 38 39 38 39 39 C18.99814604 39.28085821 -1.0033055 39.49219137 -21.00672531 39.62174606 C-30.29568312 39.6835118 -39.5834128 39.76765 -48.87158203 39.90527344 C-56.97134003 40.02523045 -65.07020836 40.10237947 -73.17083001 40.12906194 C-77.45696486 40.1446505 -81.74055566 40.18102895 -86.02587128 40.26876068 C-90.06834587 40.35084236 -94.10725526 40.37522149 -98.15048409 40.35729218 C-99.62596919 40.36056658 -101.10158595 40.38408203 -102.57634544 40.4304657 C-110.13254606 40.65626039 -115.68911942 39.97746567 -121.34540296 34.66063046 C-128 27.78441607 -128 27.78441607 -128 26 C-120.74 26 -113.48 26 -106 26 C-106.020625 23.710625 -106.04125 21.42125 -106.0625 19.0625 C-106.08370868 16.70833668 -106.07271741 14.35313555 -106 12 C-104.23671528 10.23671528 -101.90482856 10.87384356 -99.55593872 10.86447144 C-98.38549515 10.86750778 -98.38549515 10.86750778 -97.19140625 10.87060547 C-96.37356659 10.86885315 -95.55572693 10.86710083 -94.71310425 10.86529541 C-91.9962149 10.86087615 -89.27939007 10.86381514 -86.5625 10.8671875 C-84.68302396 10.86651448 -82.80354801 10.86554447 -80.92407227 10.86428833 C-76.97964654 10.86281126 -73.03524342 10.86496621 -69.09082031 10.86962891 C-64.02287497 10.8753262 -58.95498258 10.87204724 -53.88703918 10.86605644 C-50.00443113 10.86245108 -46.12183572 10.8635893 -42.23922729 10.86618423 C-40.37002557 10.86685357 -38.50082272 10.86602484 -36.63162231 10.86370468 C-34.02391496 10.86117857 -31.41629459 10.86501816 -28.80859375 10.87060547 C-28.02829803 10.86858124 -27.24800232 10.86655701 -26.44406128 10.86447144 C-21.11426253 10.88573747 -21.11426253 10.88573747 -20 12 C-19.85606543 16.33530918 -19.95787939 20.66157731 -20 25 C-12.41 25 -4.82 25 3 25 C2.87625 22.174375 2.7525 19.34875 2.625 16.4375 C2.59100098 15.56150146 2.55700195 14.68550293 2.52197266 13.78295898 C2.27769073 8.88903029 1.5371711 4.65525395 0 0 Z " fill="#0192D8" transform="translate(319,145)"/>
<path d="M0 0 C1.30398239 -0.01511375 1.30398239 -0.01511375 2.63430786 -0.03053284 C5.49307311 -0.05890345 8.35130801 -0.06488443 11.21020508 -0.06811523 C13.2116975 -0.07776592 15.21318783 -0.08785911 17.2146759 -0.09837341 C21.40667622 -0.11630903 25.59849138 -0.12189729 29.79052734 -0.12011719 C35.13570164 -0.11981295 40.4796747 -0.16071739 45.82456493 -0.21243382 C49.95900309 -0.24596282 54.09315631 -0.25186965 58.22771645 -0.25028801 C60.19672079 -0.25380498 62.16573437 -0.2669434 64.1346035 -0.29028511 C76.26603612 -0.42061604 86.5474825 -0.34745751 96.05265808 8.25535583 C101.32666663 13.75314823 103.39118463 19.72678845 103.3125 27.21875 C103.28518799 28.09474854 103.25787598 28.97074707 103.22973633 29.87329102 C103.16786133 32.69891602 103.10598633 35.52454102 103.04223633 38.43579102 C95.45223633 38.43579102 87.86223633 38.43579102 80.04223633 38.43579102 C79.71223633 34.14579102 79.38223633 29.85579102 79.04223633 25.43579102 C51.32223633 25.43579102 23.60223633 25.43579102 -4.95776367 25.43579102 C-5.28776367 29.72579102 -5.61776367 34.01579102 -5.95776367 38.43579102 C-13.54776367 38.43579102 -21.13776367 38.43579102 -28.95776367 38.43579102 C-29.76499909 16.80188173 -29.76499909 16.80188173 -22.09057617 8.38891602 C-15.34905171 2.04086574 -9.06237346 -0.01526937 0 0 Z " fill="#FAFDFE" transform="translate(218.957763671875,131.564208984375)"/>
<path d="M0 0 C1.05026367 -0.0038269 2.10052734 -0.00765381 3.18261719 -0.01159668 C5.40170247 -0.01431696 7.62081974 -0.00694777 9.83984375 0.00976562 C13.23770595 0.03117255 16.63345361 0.00996675 20.03125 -0.015625 C22.18750467 -0.01298175 24.34375802 -0.00785682 26.5 0 C27.51674805 -0.00809692 28.53349609 -0.01619385 29.58105469 -0.02453613 C33.48440043 0.02739124 36.39212968 0.08866257 39.88867188 1.89257812 C42.11406275 6.2060689 41.81932893 10.49959728 41.78125 15.28125 C41.7850769 16.33151367 41.78890381 17.38177734 41.79284668 18.46386719 C41.79556696 20.68295247 41.78819777 22.90206974 41.77148438 25.12109375 C41.75007745 28.51895595 41.77128325 31.91470361 41.796875 35.3125 C41.79423175 37.46875467 41.78910682 39.62500802 41.78125 41.78125 C41.78934692 42.79799805 41.79744385 43.81474609 41.80578613 44.86230469 C41.75385876 48.76565043 41.69258743 51.67337968 39.88867188 55.16992188 C35.5751811 57.39531275 31.28165272 57.10057893 26.5 57.0625 C24.92460449 57.06824036 24.92460449 57.06824036 23.31738281 57.07409668 C21.09829753 57.07681696 18.87918026 57.06944777 16.66015625 57.05273438 C13.26229405 57.03132745 9.86654639 57.05253325 6.46875 57.078125 C4.31249533 57.07548175 2.15624198 57.07035682 0 57.0625 C-1.01674805 57.07059692 -2.03349609 57.07869385 -3.08105469 57.08703613 C-6.98440043 57.03510876 -9.89212968 56.97383743 -13.38867188 55.16992188 C-15.61406275 50.8564311 -15.31932893 46.56290272 -15.28125 41.78125 C-15.2850769 40.73098633 -15.28890381 39.68072266 -15.29284668 38.59863281 C-15.29556696 36.37954753 -15.28819777 34.16043026 -15.27148438 31.94140625 C-15.25007745 28.54354405 -15.27128325 25.14779639 -15.296875 21.75 C-15.29423175 19.59374533 -15.28910682 17.43749198 -15.28125 15.28125 C-15.28934692 14.26450195 -15.29744385 13.24775391 -15.30578613 12.20019531 C-15.25385876 8.29684957 -15.19258743 5.38912032 -13.38867188 1.89257812 C-9.0751811 -0.33281275 -4.78165272 -0.03807893 0 0 Z " fill="#FAFDFE" transform="translate(242.75,258.46875)"/>
</svg>
